<svg id="Title_Black_copy" data-name="Title Black copy" xmlns="http://www.w3.org/2000/svg" width="600" height="500" viewBox="0 0 600 500">
  <metadata><?xpacket begin="﻿" id="W5M0MpCehiHzreSzNTczkc9d"?>
<x:xmpmeta xmlns:x="adobe:ns:meta/" x:xmptk="Adobe XMP Core 5.6-c138 79.159824, 2016/09/14-01:09:01        ">
   <rdf:RDF xmlns:rdf="http://www.w3.org/1999/02/22-rdf-syntax-ns#">
      <rdf:Description rdf:about=""/>
   </rdf:RDF>
</x:xmpmeta>
                                                                                                    
                                                                                                    
                                                                                                    
                                                                                                    
                                                                                                    
                                                                                                    
                                                                                                    
                                                                                                    
                                                                                                    
                                                                                                    
                                                                                                    
                                                                                                    
                                                                                                    
                                                                                                    
                                                                                                    
                                                                                                    
                                                                                                    
                                                                                                    
                                                                                                    
                                                                                                    
                           
<?xpacket end="w"?></metadata>
<defs>
    <style>
      .cls-1 {
        fill: #e4e4e4;
      }

      .cls-1, .cls-3 {
        fill-rule: evenodd;
      }

      .cls-2, .cls-3 {
        fill: #212121;
      }
    </style>
  </defs>
  <path id="Game" class="cls-1" d="M583.293,278.661a12.838,12.838,0,0,0-2.15-.4c-0.7-.066-1.385-0.1-2.05-0.1a11.717,11.717,0,0,0-5.55,1.2,11.3,11.3,0,0,0-3.6,2.892,10.955,10.955,0,0,0-1.95,3.691,12.34,12.34,0,0,0-.6,3.489v25.531h-16.4V265.22h15.8v7.2h0.2a16.218,16.218,0,0,1,5.4-6.242,13.9,13.9,0,0,1,8.1-2.417,18.852,18.852,0,0,1,1.95.1,7.558,7.558,0,0,1,1.55.3Zm-78.7,15.9a8.69,8.69,0,0,0,1.25,3.8,10.791,10.791,0,0,0,2.7,2.95,13.248,13.248,0,0,0,7.95,2.65,13.793,13.793,0,0,0,6.6-1.45,13.048,13.048,0,0,0,4.4-3.75l11.4,7.2a23.069,23.069,0,0,1-9.25,7.85,30.62,30.62,0,0,1-13.35,2.75,31.868,31.868,0,0,1-10.6-1.75,25.712,25.712,0,0,1-8.75-5.1,23.606,23.606,0,0,1-5.9-8.25,27.612,27.612,0,0,1-2.15-11.2,28.029,28.029,0,0,1,2.1-11.05,24.982,24.982,0,0,1,5.7-8.4,25.412,25.412,0,0,1,8.5-5.35,29.079,29.079,0,0,1,10.6-1.9,26.838,26.838,0,0,1,10.1,1.85,22,22,0,0,1,7.9,5.35,24.735,24.735,0,0,1,5.15,8.5,32.725,32.725,0,0,1,1.85,11.4v2a17.382,17.382,0,0,1-.1,1.9h-36.1Zm18.65-16.9q-2.451-2.8-7.35-2.8a12.439,12.439,0,0,0-4.4.75,11.4,11.4,0,0,0-3.5,2.05,10.15,10.15,0,0,0-2.4,3.05,8.923,8.923,0,0,0-1,3.65h21.1A9.835,9.835,0,0,0,523.243,277.661Zm-48.4,30.65a22.984,22.984,0,0,1-7.45,5.85,22.077,22.077,0,0,1-10,2.2,20.907,20.907,0,0,1-8.7-1.85,15.506,15.506,0,0,1-6.4-5.05h-0.2v29.5h-16.4v-73.8h15.6v6.1h0.3a20.189,20.189,0,0,1,6.35-5.25,19.354,19.354,0,0,1,9.55-2.25,22.467,22.467,0,0,1,9.8,2.1,22.15,22.15,0,0,1,7.45,5.7,25.979,25.979,0,0,1,4.7,8.35,30.11,30.11,0,0,1,1.65,9.95,31.458,31.458,0,0,1-1.6,10A25.756,25.756,0,0,1,474.844,308.311Zm-10.4-23.15a12.245,12.245,0,0,0-2.2-4.05,11.024,11.024,0,0,0-8.75-3.95,11.025,11.025,0,0,0-5,1.1,11.908,11.908,0,0,0-3.75,2.9,13.217,13.217,0,0,0-2.4,4.1,13.419,13.419,0,0,0,0,9.4,13.206,13.206,0,0,0,2.4,4.1,11.894,11.894,0,0,0,3.75,2.9,11.012,11.012,0,0,0,5,1.1,11.261,11.261,0,0,0,5.1-1.1,10.859,10.859,0,0,0,3.65-2.9,12.726,12.726,0,0,0,2.2-4.15,15.535,15.535,0,0,0,.75-4.75A15.072,15.072,0,0,0,464.444,285.161Zm-30.05,90.3a29.079,29.079,0,0,1,10.6-1.9,26.838,26.838,0,0,1,10.1,1.85,22,22,0,0,1,7.9,5.35,24.735,24.735,0,0,1,5.15,8.5,32.725,32.725,0,0,1,1.85,11.4v2a17.382,17.382,0,0,1-.1,1.9h-36.1a8.69,8.69,0,0,0,1.25,3.8,10.791,10.791,0,0,0,2.7,2.95,13.248,13.248,0,0,0,7.95,2.65,13.793,13.793,0,0,0,6.6-1.45,13.048,13.048,0,0,0,4.4-3.75l11.4,7.2a23.069,23.069,0,0,1-9.25,7.85,30.62,30.62,0,0,1-13.35,2.75,31.868,31.868,0,0,1-10.6-1.75,25.712,25.712,0,0,1-8.75-5.1,23.606,23.606,0,0,1-5.9-8.25,27.612,27.612,0,0,1-2.15-11.2,28.029,28.029,0,0,1,2.1-11.05,24.982,24.982,0,0,1,5.7-8.4A25.412,25.412,0,0,1,434.394,375.461Zm20.5,18.9a9.835,9.835,0,0,0-2.45-6.7q-2.451-2.8-7.35-2.8a12.439,12.439,0,0,0-4.4.75,11.4,11.4,0,0,0-3.5,2.05,10.15,10.15,0,0,0-2.4,3.05,8.923,8.923,0,0,0-1,3.65h21.1Zm-47.8-85.05a27.476,27.476,0,0,1-8.8,5.35,30.938,30.938,0,0,1-21.35,0,26.748,26.748,0,0,1-8.8-5.35,25.089,25.089,0,0,1-5.95-8.4,26.91,26.91,0,0,1-2.2-11.05,26.566,26.566,0,0,1,2.2-11,24.687,24.687,0,0,1,5.95-8.3,25.879,25.879,0,0,1,8.8-5.2,32.554,32.554,0,0,1,21.35,0,26.555,26.555,0,0,1,8.8,5.2,24.394,24.394,0,0,1,6,8.3,26.6,26.6,0,0,1,2.2,11,26.943,26.943,0,0,1-2.2,11.05A24.786,24.786,0,0,1,407.1,309.311Zm-8.4-24.15a12.466,12.466,0,0,0-2.3-4.05,11.729,11.729,0,0,0-3.7-2.85,12.373,12.373,0,0,0-10.2,0,11.124,11.124,0,0,0-3.65,2.85,12.209,12.209,0,0,0-2.2,4.05,15.1,15.1,0,0,0,0,9.4,12.85,12.85,0,0,0,2.25,4.15,11.058,11.058,0,0,0,3.7,2.95,12.373,12.373,0,0,0,10.2,0,11.078,11.078,0,0,0,3.7-2.95,12.85,12.85,0,0,0,2.25-4.15,15.067,15.067,0,0,0,.75-4.7A14.222,14.222,0,0,0,398.7,285.161Zm-23.8,96.9h0.2a16.469,16.469,0,0,1,2.35-3.15,14.121,14.121,0,0,1,3.4-2.65,21.177,21.177,0,0,1,4.25-1.8,16.761,16.761,0,0,1,4.9-.7,18.411,18.411,0,0,1,8.5,1.8,16.252,16.252,0,0,1,5.65,4.65,18.327,18.327,0,0,1,3.1,6.55,29.674,29.674,0,0,1,.95,7.4v30.8h-16.5v-27.2a22.088,22.088,0,0,0-.35-4,11.062,11.062,0,0,0-1.15-3.35,5.981,5.981,0,0,0-2.25-2.3,7.136,7.136,0,0,0-3.65-.85,8.3,8.3,0,0,0-3.85.85,7.791,7.791,0,0,0-2.75,2.35,10.647,10.647,0,0,0-1.65,3.45,14.835,14.835,0,0,0-.55,4.05v27h-16.5v-49.8h15.9v6.9Zm-42-142.7h16.7v75.6H332.9v-75.6Zm13.1,135.8v45.1a34.963,34.963,0,0,1-2.1,12.7,23.864,23.864,0,0,1-5.9,8.95,24.159,24.159,0,0,1-9.25,5.3,39.286,39.286,0,0,1-12.05,1.75,48.891,48.891,0,0,1-13.55-2,37.163,37.163,0,0,1-12.05-5.8l8.2-11.7a24.048,24.048,0,0,0,7.95,4.75,25.376,25.376,0,0,0,8.55,1.55q7.2,0,10.65-3.8t3.45-10.1v-3h-0.3a16.169,16.169,0,0,1-6.2,4.8,21.013,21.013,0,0,1-8.9,1.8,23.656,23.656,0,0,1-10.1-2.05,22.128,22.128,0,0,1-7.45-5.55,24.262,24.262,0,0,1-4.65-8.15,30.052,30.052,0,0,1-1.6-9.85,30.505,30.505,0,0,1,1.6-9.9,25.306,25.306,0,0,1,4.65-8.3,22.224,22.224,0,0,1,17.45-7.9,22.044,22.044,0,0,1,9,1.9,15.609,15.609,0,0,1,6.9,5.9h0.2v-6.4H346Zm-16.45,19.8a12.231,12.231,0,0,0-2.45-4.05,11.612,11.612,0,0,0-3.8-2.75,11.971,11.971,0,0,0-5-1,11.624,11.624,0,0,0-4.95,1,10.976,10.976,0,0,0-3.65,2.7,11.864,11.864,0,0,0-2.3,4,14.8,14.8,0,0,0-.8,4.9,14.486,14.486,0,0,0,.8,4.8,12.409,12.409,0,0,0,2.3,4.05,10.937,10.937,0,0,0,8.6,3.85,11.772,11.772,0,0,0,8.85-3.8,12.081,12.081,0,0,0,2.4-4,14.033,14.033,0,0,0,.85-4.9A13.757,13.757,0,0,0,329.545,394.961ZM286.3,294.561a8.677,8.677,0,0,0,1.25,3.8,10.791,10.791,0,0,0,2.7,2.95,13.248,13.248,0,0,0,7.95,2.65,13.793,13.793,0,0,0,6.6-1.45,13.058,13.058,0,0,0,4.4-3.75l11.4,7.2a23.082,23.082,0,0,1-9.25,7.85,30.626,30.626,0,0,1-13.35,2.75,31.86,31.86,0,0,1-10.6-1.75,25.7,25.7,0,0,1-8.75-5.1,23.594,23.594,0,0,1-5.9-8.25,27.6,27.6,0,0,1-2.15-11.2,28.029,28.029,0,0,1,2.1-11.05,24.982,24.982,0,0,1,5.7-8.4,25.4,25.4,0,0,1,8.5-5.35,29.076,29.076,0,0,1,10.6-1.9,26.846,26.846,0,0,1,10.1,1.85,22.012,22.012,0,0,1,7.9,5.35,24.75,24.75,0,0,1,5.15,8.5,32.748,32.748,0,0,1,1.85,11.4v2a17.635,17.635,0,0,1-.1,1.9H286.3Zm18.65-16.9q-2.452-2.8-7.35-2.8a12.435,12.435,0,0,0-4.4.75,11.391,11.391,0,0,0-3.5,2.05,10.15,10.15,0,0,0-2.4,3.05,8.907,8.907,0,0,0-1,3.65h21.1A9.84,9.84,0,0,0,304.947,277.661Zm-62.448-95.1a8.69,8.69,0,0,0,1.25,3.8,10.791,10.791,0,0,0,2.7,2.95,13.248,13.248,0,0,0,7.95,2.65,13.793,13.793,0,0,0,6.6-1.45,13.058,13.058,0,0,0,4.4-3.75l11.4,7.2a23.076,23.076,0,0,1-9.25,7.85,30.626,30.626,0,0,1-13.35,2.75,31.864,31.864,0,0,1-10.6-1.75,25.7,25.7,0,0,1-8.75-5.1,23.606,23.606,0,0,1-5.9-8.25,27.6,27.6,0,0,1-2.15-11.2,28.029,28.029,0,0,1,2.1-11.05,24.982,24.982,0,0,1,5.7-8.4,25.412,25.412,0,0,1,8.5-5.35,29.076,29.076,0,0,1,10.6-1.9,26.842,26.842,0,0,1,10.1,1.85,22.012,22.012,0,0,1,7.9,5.35,24.75,24.75,0,0,1,5.15,8.5,32.725,32.725,0,0,1,1.85,11.4v2a17.635,17.635,0,0,1-.1,1.9H242.5Zm18.65-16.9q-2.452-2.8-7.35-2.8a12.439,12.439,0,0,0-4.4.75,11.391,11.391,0,0,0-3.5,2.05,10.15,10.15,0,0,0-2.4,3.05,8.907,8.907,0,0,0-1,3.65h21.1A9.835,9.835,0,0,0,261.149,165.661Zm-60.65,10.1a26.611,26.611,0,0,0-.3-4.05,9.68,9.68,0,0,0-1.1-3.35,6.336,6.336,0,0,0-2.15-2.25,6.592,6.592,0,0,0-3.55-.85,7.14,7.14,0,0,0-3.65.9,8.116,8.116,0,0,0-2.6,2.4,10.5,10.5,0,0,0-1.55,3.45,16.211,16.211,0,0,0-.5,4.05v26.9H168.7v-28.4a11.941,11.941,0,0,0-1.7-6.8,6.066,6.066,0,0,0-5.4-2.5,6.941,6.941,0,0,0-6.05,3.1,13.006,13.006,0,0,0-2.15,7.6v27H136.9v-49.8h15.9v6.9H153a17.413,17.413,0,0,1,2.25-3.1,14.279,14.279,0,0,1,3.25-2.65,18.226,18.226,0,0,1,4.25-1.85,18,18,0,0,1,5.15-.7,17.8,17.8,0,0,1,9.15,2.2,15.084,15.084,0,0,1,5.85,6.3,18.962,18.962,0,0,1,6.4-6.2,18.4,18.4,0,0,1,9.5-2.3,17.928,17.928,0,0,1,8.55,1.85,15.918,15.918,0,0,1,5.55,4.8,19.945,19.945,0,0,1,3.05,6.6,28.34,28.34,0,0,1,.95,7.15v30.8H200.5v-27.2Zm-54.1,103.6a34.865,34.865,0,0,1-3.45,16.05,32.364,32.364,0,0,1-9.1,11.1,37.934,37.934,0,0,1-12.75,6.4,51.658,51.658,0,0,1-14.4,2.05H80.3v-70.8h25.6a63.306,63.306,0,0,1,14.8,1.75,37.156,37.156,0,0,1,13,5.8,29.7,29.7,0,0,1,9.2,10.85Q146.4,269.362,146.4,279.361Zm-19.75-9.95a16.762,16.762,0,0,0-5.2-6.3,20.827,20.827,0,0,0-7.4-3.35,36.409,36.409,0,0,0-8.55-1H97v41.4h8.1a36.776,36.776,0,0,0,8.85-1.05,20.925,20.925,0,0,0,7.5-3.45,17.094,17.094,0,0,0,5.2-6.4A26.233,26.233,0,0,0,126.65,269.411Zm-16.95-71.75h-0.3a12.346,12.346,0,0,1-5.75,4.8,20.447,20.447,0,0,1-8.35,1.7,25.543,25.543,0,0,1-6.2-.8,18.133,18.133,0,0,1-5.85-2.6,14.07,14.07,0,0,1-4.35-4.8,14.8,14.8,0,0,1-1.7-7.4,12.561,12.561,0,0,1,2.95-8.7,19.349,19.349,0,0,1,7.6-5.1,40.264,40.264,0,0,1,10.35-2.4,106.049,106.049,0,0,1,11.1-.6v-0.8a6.108,6.108,0,0,0-2.6-5.45,11.212,11.212,0,0,0-6.4-1.75,15.926,15.926,0,0,0-6.75,1.5,21.527,21.527,0,0,0-5.55,3.6l-8.3-8.9a28.714,28.714,0,0,1,10.25-6.3,35.12,35.12,0,0,1,11.95-2.1,31.951,31.951,0,0,1,10.65,1.55,15.878,15.878,0,0,1,7.05,4.8,20.5,20.5,0,0,1,3.95,8.2,48.472,48.472,0,0,1,1.25,11.75v25.1h-15v-5.3Zm0-16.4h-2.1q-2.7,0-5.45.25a22.453,22.453,0,0,0-4.9.95,9.055,9.055,0,0,0-3.55,2.05,4.7,4.7,0,0,0-1.4,3.55,4.3,4.3,0,0,0,.65,2.4,5.028,5.028,0,0,0,1.65,1.6,6.973,6.973,0,0,0,2.3.85,13.2,13.2,0,0,0,2.5.25q5,0,7.65-2.75a10.29,10.29,0,0,0,2.65-7.45v-1.7Zm-69.8,23.5a43.955,43.955,0,0,1-15.65-2.7,36.1,36.1,0,0,1-12.3-7.6,34.621,34.621,0,0,1-8.05-11.75,41.61,41.61,0,0,1,.05-30.65,34.243,34.243,0,0,1,8.15-11.75,36.1,36.1,0,0,1,12.2-7.45,43.03,43.03,0,0,1,15.1-2.6,46.409,46.409,0,0,1,15.6,2.55,32.254,32.254,0,0,1,11.7,6.85l-10.8,12.3a18.716,18.716,0,0,0-6.6-4.75,22.391,22.391,0,0,0-9.3-1.85,20.613,20.613,0,0,0-8.3,1.65,19.944,19.944,0,0,0-6.6,4.6,20.865,20.865,0,0,0-4.35,7,24.539,24.539,0,0,0-1.55,8.85,27.667,27.667,0,0,0,1.4,9,19.335,19.335,0,0,0,4.15,7.05,18.877,18.877,0,0,0,6.8,4.6,24.349,24.349,0,0,0,9.25,1.65,34.657,34.657,0,0,0,5.7-.45,21.254,21.254,0,0,0,5-1.45v-12.9H38v-13.8H67.2v37.5a54.409,54.409,0,0,1-12.15,4.4A63.726,63.726,0,0,1,39.9,204.761ZM36,264h8v11H55v8H44v11H36V283H25v-8H36V264Zm0,110h8v11H55v8H44v11H36V393H25v-8H36V374Zm84.7-18.089a37.156,37.156,0,0,1,13,5.8,29.7,29.7,0,0,1,9.2,10.85q3.5,6.8,3.5,16.8a34.865,34.865,0,0,1-3.45,16.05,32.364,32.364,0,0,1-9.1,11.1,37.934,37.934,0,0,1-12.75,6.4,51.658,51.658,0,0,1-14.4,2.05H80.3v-70.8h25.6A63.306,63.306,0,0,1,120.7,355.911ZM97,368.761v41.4h8.1a36.776,36.776,0,0,0,8.85-1.05,20.925,20.925,0,0,0,7.5-3.45,17.094,17.094,0,0,0,5.2-6.4,26.233,26.233,0,0,0,0-19.85,16.762,16.762,0,0,0-5.2-6.3,20.827,20.827,0,0,0-7.4-3.35,36.409,36.409,0,0,0-8.55-1H97Zm65.1-97.95a25.4,25.4,0,0,1,8.5-5.35,29.076,29.076,0,0,1,10.6-1.9,26.846,26.846,0,0,1,10.1,1.85,22.012,22.012,0,0,1,7.9,5.35,24.75,24.75,0,0,1,5.15,8.5,32.748,32.748,0,0,1,1.85,11.4v2a17.635,17.635,0,0,1-.1,1.9H170a8.677,8.677,0,0,0,1.25,3.8,10.791,10.791,0,0,0,2.7,2.95,13.248,13.248,0,0,0,7.95,2.65,13.793,13.793,0,0,0,6.6-1.45,13.058,13.058,0,0,0,4.4-3.75l11.4,7.2a23.076,23.076,0,0,1-9.25,7.85,30.626,30.626,0,0,1-13.35,2.75,31.86,31.86,0,0,1-10.6-1.75,25.7,25.7,0,0,1-8.75-5.1,23.594,23.594,0,0,1-5.9-8.25,27.6,27.6,0,0,1-2.15-11.2,28.029,28.029,0,0,1,2.1-11.05A24.982,24.982,0,0,1,162.1,270.811Zm29,13.55a9.84,9.84,0,0,0-2.45-6.7q-2.452-2.8-7.35-2.8a12.435,12.435,0,0,0-4.4.75,11.391,11.391,0,0,0-3.5,2.05,10.15,10.15,0,0,0-2.4,3.05,8.907,8.907,0,0,0-1,3.65h21.1Zm-29,96.45a25.4,25.4,0,0,1,8.5-5.35,29.076,29.076,0,0,1,10.6-1.9,26.846,26.846,0,0,1,10.1,1.85,22.012,22.012,0,0,1,7.9,5.35,24.75,24.75,0,0,1,5.15,8.5,32.748,32.748,0,0,1,1.85,11.4v2a17.635,17.635,0,0,1-.1,1.9H170a8.677,8.677,0,0,0,1.25,3.8,10.791,10.791,0,0,0,2.7,2.95,13.248,13.248,0,0,0,7.95,2.65,13.793,13.793,0,0,0,6.6-1.45,13.058,13.058,0,0,0,4.4-3.75l11.4,7.2a23.076,23.076,0,0,1-9.25,7.85,30.626,30.626,0,0,1-13.35,2.75,31.86,31.86,0,0,1-10.6-1.75,25.7,25.7,0,0,1-8.75-5.1,23.594,23.594,0,0,1-5.9-8.25,27.6,27.6,0,0,1-2.15-11.2,28.029,28.029,0,0,1,2.1-11.05A24.982,24.982,0,0,1,162.1,380.811Zm29,13.55a9.84,9.84,0,0,0-2.45-6.7q-2.452-2.8-7.35-2.8a12.435,12.435,0,0,0-4.4.75,11.391,11.391,0,0,0-3.5,2.05,10.15,10.15,0,0,0-2.4,3.05,8.907,8.907,0,0,0-1,3.65h21.1Zm47.4-96.9h0.3l10.5-32.3h17.5l-19.6,49.8H229.5l-19.6-49.8H228Zm-12.8,115.7a15,15,0,0,0,6.8,1.6,8.928,8.928,0,0,0,3.95-.95,3.409,3.409,0,0,0,1.95-3.35,3.591,3.591,0,0,0-2.4-3.4,43.107,43.107,0,0,0-7.5-2.3,38.663,38.663,0,0,1-5.2-1.6,16.457,16.457,0,0,1-4.65-2.7,13.41,13.41,0,0,1-3.35-4.2,12.851,12.851,0,0,1-1.3-6,14.548,14.548,0,0,1,1.9-7.65,16.092,16.092,0,0,1,4.9-5.15,21.8,21.8,0,0,1,6.65-2.95,28.7,28.7,0,0,1,7.25-.95,35.028,35.028,0,0,1,10.95,1.75,23.666,23.666,0,0,1,9.05,5.25l-9,9.3a18.3,18.3,0,0,0-4.7-3.2,12.986,12.986,0,0,0-5.7-1.3,10.016,10.016,0,0,0-4.25.9,3.156,3.156,0,0,0-1.95,3.1,3.086,3.086,0,0,0,2.15,3,46.823,46.823,0,0,0,6.95,2,37.592,37.592,0,0,1,5.65,1.7,19.99,19.99,0,0,1,5.15,2.9,13.9,13.9,0,0,1,3.7,4.4,12.907,12.907,0,0,1,1.4,6.2,14.928,14.928,0,0,1-6.85,13.2,21.346,21.346,0,0,1-6.85,2.9,32.883,32.883,0,0,1-7.6.9,37.552,37.552,0,0,1-11.95-1.95,25.08,25.08,0,0,1-9.75-5.75l9.2-9.7A18.353,18.353,0,0,0,225.7,413.161Zm39.6-60.2a10.806,10.806,0,0,1,3-1.95,9.06,9.06,0,0,1,3.7-.75,9.756,9.756,0,0,1,3.65.7,8.976,8.976,0,0,1,5,4.75,8.777,8.777,0,0,1,0,7.1,8.976,8.976,0,0,1-5,4.75,9.736,9.736,0,0,1-3.65.7,9.185,9.185,0,0,1-6.7-2.65,8.582,8.582,0,0,1-2.7-6.35,8.739,8.739,0,0,1,.7-3.45A8.166,8.166,0,0,1,265.3,352.961Zm14.9,72H263.8v-49.8h16.4v49.8Zm215.8-42.541h0.2a16.235,16.235,0,0,1,5.4-6.242,13.9,13.9,0,0,1,8.1-2.417,18.823,18.823,0,0,1,1.95.1,7.558,7.558,0,0,1,1.55.3l-0.7,14.5a12.819,12.819,0,0,0-2.15-.4q-1.05-.1-2.05-0.1a11.717,11.717,0,0,0-5.55,1.2,11.3,11.3,0,0,0-3.6,2.892,10.955,10.955,0,0,0-1.95,3.691,12.34,12.34,0,0,0-.6,3.489v25.531h-16.4V375.22h15.8v7.2Z"/>
  <rect id="LinksDivider" class="cls-2" y="669" width="580" height="2"/>
  <path id="Twitter" class="cls-3" d="M0.006,690.006v79.988H79.994V690.006H0.006Zm62.013,28.7q0.032,0.731.033,1.469c0,15.014-11.427,32.325-32.325,32.325a32.152,32.152,0,0,1-17.415-5.1,23.093,23.093,0,0,0,2.71.159,22.792,22.792,0,0,0,14.11-4.864,11.372,11.372,0,0,1-10.613-7.89,11.353,11.353,0,0,0,5.131-.194,11.369,11.369,0,0,1-9.114-11.14c0-.048,0-0.1,0-0.143a11.313,11.313,0,0,0,5.146,1.421,11.373,11.373,0,0,1-3.515-15.168,32.256,32.256,0,0,0,23.417,11.871,11.368,11.368,0,0,1,19.359-10.363,22.737,22.737,0,0,0,7.214-2.757,11.391,11.391,0,0,1-5,6.286,22.746,22.746,0,0,0,6.525-1.789A23.085,23.085,0,0,1,62.019,718.707Z"/>
  <path id="Linkedin" class="cls-3" d="M143.323,725.93v-0.117c-0.024.039-.057,0.078-0.078,0.117h0.078ZM100,690v80h80V690H100Zm24.883,66.462H113.014V720.753h11.869v35.709Zm-5.935-40.583H118.87c-3.982,0-6.562-2.743-6.562-6.172,0-3.5,2.656-6.169,6.718-6.169s6.56,2.665,6.638,6.169C125.664,713.136,123.089,715.879,118.948,715.879Zm48.744,40.583H155.82V737.357c0-4.8-1.715-8.073-6.012-8.073a6.492,6.492,0,0,0-6.091,4.341,8.141,8.141,0,0,0-.394,2.894v19.943H131.448s0.16-32.359,0-35.709h11.875v5.06a11.79,11.79,0,0,1,10.7-5.9c7.813,0,13.669,5.1,13.669,16.069v20.478Z"/>
  <path id="Spotify" class="cls-3" d="M251.287,739.581a30.768,30.768,0,0,0-16.1-4.179,46.182,46.182,0,0,0-10.367,1.226,1.765,1.765,0,0,0-1.5,1.9,1.725,1.725,0,0,0,1.751,1.74,8.549,8.549,0,0,0,1.364-.272,43.356,43.356,0,0,1,8.736-.959,27.773,27.773,0,0,1,14.328,3.7,2.091,2.091,0,0,0,1.171.409,1.725,1.725,0,0,0,1.722-1.732A1.837,1.837,0,0,0,251.287,739.581Zm3.288-8.113a38.96,38.96,0,0,0-19.775-5.1,38.261,38.261,0,0,0-10.918,1.515,2.2,2.2,0,0,0-1.722,2.312,2.17,2.17,0,0,0,2.164,2.171,4.584,4.584,0,0,0,1.347-.311,36.626,36.626,0,0,1,26.622,3.291,2.54,2.54,0,0,0,1.388.482,2.153,2.153,0,0,0,2.158-2.167A2.265,2.265,0,0,0,254.575,731.468ZM200.006,690v80h80V690h-80Zm40,67.691A27.691,27.691,0,1,1,267.7,730,27.692,27.692,0,0,1,240.005,757.691Zm18.3-35.5c-6.248-3.67-14.806-5.341-22.935-5.341a46.6,46.6,0,0,0-13.146,1.7,2.623,2.623,0,0,0-1.936,2.644,2.6,2.6,0,0,0,2.609,2.648,5.926,5.926,0,0,0,1.422-.3,42.733,42.733,0,0,1,11.062-1.33c7.521,0,15.3,1.654,20.313,4.659a2.618,2.618,0,0,0,1.423.426,2.584,2.584,0,0,0,2.615-2.592A2.632,2.632,0,0,0,258.3,722.19Z"/>
  <path id="Reddit" class="cls-3" d="M300,690h80v80H300V690Zm31.464,43.458v0h1.7Zm16.968,0v0h1.7Zm18.9-5.089a6.8,6.8,0,0,0-6.787-6.79,6.7,6.7,0,0,0-4.079,1.375,28.516,28.516,0,0,0-14.025-4.6l2.847-6.682,8.284,1.936a5.066,5.066,0,1,0,.787-3.3l-9.682-2.264a1.7,1.7,0,0,0-1.951.988l-3.936,9.234a29.094,29.094,0,0,0-15.227,4.6,6.648,6.648,0,0,0-3.977-1.287,6.8,6.8,0,0,0-6.787,6.79,6.725,6.725,0,0,0,3.431,5.877c-0.027.3-.038,0.6-0.038,0.913,0,9.36,10.656,16.974,23.755,16.974s23.754-7.614,23.754-16.974c0-.265-0.01-0.526-0.027-0.788A6.723,6.723,0,0,0,367.333,728.369ZM358.612,711.4a1.7,1.7,0,1,1-1.7,1.7A1.7,1.7,0,0,1,358.612,711.4Zm-30.541,22.066a3.394,3.394,0,1,1,3.393,3.395A3.4,3.4,0,0,1,328.071,733.461Zm19.712,11.261a13.343,13.343,0,0,1-15.671,0,1.7,1.7,0,0,1,1.989-2.75,9.948,9.948,0,0,0,11.694,0A1.7,1.7,0,1,1,347.783,744.722Zm0.649-7.866a3.395,3.395,0,1,1,3.393-3.395A3.4,3.4,0,0,1,348.432,736.856Z"/>
  <path id="Github" class="cls-3" d="M477.917,690H400v80h27.293v-0.018a1.853,1.853,0,0,0,2.05-1.714c0.1-2.778.03-5.562,0.03-8.247a58.356,58.356,0,0,1-5.885.238c-4.227-.241-7.476-2.03-9.16-6.134a11.742,11.742,0,0,0-4.843-5.9,4.865,4.865,0,0,1-1.154-1.029c-0.438-.506-0.356-1.026.335-1.165a5.833,5.833,0,0,1,2.146-.111,9.012,9.012,0,0,1,6,4.415c2.826,4.418,7.175,5.77,12.069,3.73a1.175,1.175,0,0,0,.671-0.641,10.335,10.335,0,0,1,2.617-5.3c-1.651-.3-3.181-0.527-4.682-0.872-4.319-.991-8.2-2.774-11.038-6.316a19.442,19.442,0,0,1-3.861-9.871c-0.763-5.637-.08-10.915,3.824-15.42a1.21,1.21,0,0,0,.217-0.978,15.632,15.632,0,0,1,.14-9.443c0.509-1.645.65-1.727,2.344-1.5,0.1,0.014.2,0.04,0.306,0.057,3.395,0.557,6.316,2.187,9.194,3.936a2.071,2.071,0,0,0,1.4.28,43.423,43.423,0,0,1,20.607.006,2.088,2.088,0,0,0,1.314-.239c1.564-.811,3.062-1.754,4.646-2.523a12.942,12.942,0,0,1,5.876-1.529,1.4,1.4,0,0,1,1.055.674,15.523,15.523,0,0,1,.52,10.111,1.863,1.863,0,0,0,.252,1.253c0.989,1.8,2.37,3.46,3,5.369a22.434,22.434,0,0,1-1.385,17.05c-2.38,5.013-6.794,7.553-12.019,8.863-1.764.442-3.572,0.711-5.475,1.082,2.494,2.584,2.885,5.738,2.841,9.041-0.046,3.407-.034,6.815-0.036,10.223,0,1.65.726,2.562,1.994,2.616,0,0,26.8,0,26.8,0V690h-2.083Z"/>
  <path id="BlankIcon" class="cls-3" d="M500,690h80v80H500V690Zm2,2h76v76H502V692Zm34,34h8v8h-8v-8Z"/>
  <path id="Twitter-2" data-name="Twitter" class="cls-3" d="M-119.994-249.994v79.988h79.988v-79.988h-79.988Zm62.013,28.7q0.032,0.731.033,1.469c0,15.014-11.427,32.325-32.325,32.325a32.148,32.148,0,0,1-17.415-5.1,23.068,23.068,0,0,0,2.71.159,22.791,22.791,0,0,0,14.11-4.864,11.372,11.372,0,0,1-10.614-7.89,11.33,11.33,0,0,0,2.138.205,11.4,11.4,0,0,0,2.993-.4,11.368,11.368,0,0,1-9.114-11.14c0-.048,0-0.1,0-0.143a11.314,11.314,0,0,0,5.146,1.421,11.354,11.354,0,0,1-5.054-9.456,11.309,11.309,0,0,1,1.538-5.712,32.258,32.258,0,0,0,23.417,11.871,11.394,11.394,0,0,1-.295-2.59A11.362,11.362,0,0,1-69.349-232.5a11.346,11.346,0,0,1,8.293,3.587,22.737,22.737,0,0,0,7.214-2.757,11.391,11.391,0,0,1-5,6.286,22.746,22.746,0,0,0,6.525-1.789A23.085,23.085,0,0,1-57.981-221.293Z"/>
  <path id="Linkedin-2" data-name="Linkedin" class="cls-3" d="M3.323-214.07v-0.117c-0.024.039-.057,0.078-0.078,0.117H3.323ZM-40-250v80H40v-80H-40Zm24.883,66.462H-26.986v-35.709h11.869v35.709Zm-5.935-40.583H-21.13c-3.982,0-6.562-2.743-6.562-6.172,0-3.5,2.656-6.169,6.718-6.169s6.56,2.665,6.638,6.169C-14.336-226.864-16.911-224.121-21.052-224.121Zm48.744,40.583H15.82v-19.1c0-4.8-1.715-8.073-6.012-8.073a6.492,6.492,0,0,0-6.091,4.341,8.135,8.135,0,0,0-.394,2.894v19.943H-8.552s0.159-32.359,0-35.709H3.323v5.06a11.789,11.789,0,0,1,10.7-5.9c7.813,0,13.669,5.1,13.669,16.069v20.478Z"/>
  <path id="Spotify-2" data-name="Spotify" class="cls-3" d="M91.287-200.419a30.764,30.764,0,0,0-16.1-4.179,46.171,46.171,0,0,0-10.366,1.226,1.765,1.765,0,0,0-1.5,1.9,1.725,1.725,0,0,0,1.751,1.74A8.563,8.563,0,0,0,66.427-200a43.349,43.349,0,0,1,8.736-.959,27.775,27.775,0,0,1,14.328,3.7,2.09,2.09,0,0,0,1.171.409,1.724,1.724,0,0,0,1.721-1.732A1.836,1.836,0,0,0,91.287-200.419Zm3.288-8.113a38.957,38.957,0,0,0-19.774-5.1,38.264,38.264,0,0,0-10.919,1.515,2.2,2.2,0,0,0-1.721,2.312,2.169,2.169,0,0,0,2.163,2.171,4.583,4.583,0,0,0,1.347-.311,35.13,35.13,0,0,1,9.039-1.156,35.132,35.132,0,0,1,17.583,4.447,2.539,2.539,0,0,0,1.388.482,2.154,2.154,0,0,0,2.158-2.167A2.266,2.266,0,0,0,94.575-208.532ZM40.006-250v80h80v-80h-80Zm40,67.691A27.692,27.692,0,0,1,52.313-210,27.69,27.69,0,0,1,80-237.691,27.692,27.692,0,0,1,107.7-210,27.694,27.694,0,0,1,80-182.309Zm18.3-35.5c-6.249-3.67-14.806-5.341-22.935-5.341a46.6,46.6,0,0,0-13.146,1.7,2.623,2.623,0,0,0-1.935,2.644,2.6,2.6,0,0,0,2.609,2.648,5.922,5.922,0,0,0,1.422-.3,42.733,42.733,0,0,1,11.062-1.33c7.522,0,15.3,1.654,20.313,4.659a2.623,2.623,0,0,0,1.424.426,2.584,2.584,0,0,0,2.615-2.592A2.632,2.632,0,0,0,98.3-217.81Z"/>
  <path id="Reddit-2" data-name="Reddit" class="cls-3" d="M120-250h80v80H120v-80Zm31.464,43.458v0h1.7Zm16.968,0v0h1.7Zm18.9-5.089a6.8,6.8,0,0,0-6.787-6.79,6.7,6.7,0,0,0-4.079,1.375,28.516,28.516,0,0,0-14.025-4.6l2.847-6.682,8.284,1.936a5.078,5.078,0,0,0,5.039,4.572,5.1,5.1,0,0,0,5.09-5.092,5.1,5.1,0,0,0-5.09-5.092,5.08,5.08,0,0,0-4.252,2.308l-9.682-2.264a1.7,1.7,0,0,0-1.951.988l-3.936,9.234a29.094,29.094,0,0,0-15.227,4.6,6.648,6.648,0,0,0-3.977-1.287,6.8,6.8,0,0,0-6.787,6.79,6.725,6.725,0,0,0,3.431,5.877c-0.027.3-.038,0.6-0.038,0.913,0,9.36,10.656,16.974,23.755,16.974s23.754-7.614,23.754-16.974c0-.265-0.01-0.526-0.027-0.788A6.723,6.723,0,0,0,187.333-211.631ZM178.612-228.6a1.7,1.7,0,0,1,1.7,1.7,1.7,1.7,0,0,1-1.7,1.7,1.7,1.7,0,0,1-1.7-1.7A1.7,1.7,0,0,1,178.612-228.6Zm-30.541,22.066a3.4,3.4,0,0,1,3.393-3.394,3.4,3.4,0,0,1,3.394,3.394,3.4,3.4,0,0,1-3.394,3.395A3.4,3.4,0,0,1,148.071-206.539Zm19.712,11.261a13.353,13.353,0,0,1-7.835,2.543,13.358,13.358,0,0,1-7.836-2.543,1.7,1.7,0,0,1-.38-2.369,1.7,1.7,0,0,1,2.369-.381,9.948,9.948,0,0,0,11.694,0,1.7,1.7,0,0,1,2.369.381A1.7,1.7,0,0,1,167.783-195.278Zm0.649-7.866a3.4,3.4,0,0,1-3.394-3.395,3.4,3.4,0,0,1,3.394-3.394,3.4,3.4,0,0,1,3.393,3.394A3.4,3.4,0,0,1,168.432-203.144Z"/>
  <path id="Github-2" data-name="Github" class="cls-3" d="M277.917-250H200v80h27.293v-0.018a1.853,1.853,0,0,0,2.05-1.714c0.1-2.778.03-5.562,0.03-8.247a58.356,58.356,0,0,1-5.885.238c-4.227-.241-7.476-2.03-9.16-6.134a11.742,11.742,0,0,0-4.843-5.9,4.865,4.865,0,0,1-1.154-1.029c-0.438-.506-0.356-1.026.335-1.165a5.833,5.833,0,0,1,2.146-.111,9.012,9.012,0,0,1,6,4.415c2.826,4.418,7.175,5.77,12.069,3.73a1.175,1.175,0,0,0,.671-0.641,10.335,10.335,0,0,1,2.617-5.3c-1.651-.3-3.181-0.527-4.682-0.872-4.319-.991-8.2-2.774-11.038-6.316a19.442,19.442,0,0,1-3.861-9.871c-0.763-5.637-.08-10.915,3.824-15.42a1.21,1.21,0,0,0,.217-0.978,15.632,15.632,0,0,1,.14-9.443c0.509-1.645.65-1.727,2.344-1.5,0.1,0.014.2,0.04,0.306,0.057,3.4,0.557,6.316,2.187,9.194,3.936a2.071,2.071,0,0,0,1.4.28,43.423,43.423,0,0,1,20.607.006,2.088,2.088,0,0,0,1.314-.239c1.564-.811,3.062-1.754,4.646-2.523a12.942,12.942,0,0,1,5.876-1.529,1.4,1.4,0,0,1,1.055.674,15.523,15.523,0,0,1,.52,10.111,1.863,1.863,0,0,0,.252,1.253c0.989,1.8,2.37,3.46,3,5.369a22.434,22.434,0,0,1-1.385,17.05c-2.38,5.013-6.794,7.553-12.019,8.863-1.764.442-3.572,0.711-5.475,1.082,2.494,2.584,2.885,5.738,2.841,9.041-0.046,3.407-.034,6.815-0.036,10.223,0,1.65.726,2.562,1.994,2.616,0,0,26.8,0,26.8,0v-80h-2.083Z"/>
  <path id="BlankIcon-2" data-name="BlankIcon" class="cls-3" d="M280-250h80v80H280v-80Zm2,2h76v76H282v-76Zm34,34h8v8h-8v-8Z"/>
  <path id="BlankIcon_copy" data-name="BlankIcon copy" class="cls-1" d="M-119.994-169.994v79.988h79.988v-79.988h-79.988Zm62.013,28.7q0.032,0.731.033,1.469c0,15.014-11.427,32.325-32.325,32.325a32.148,32.148,0,0,1-17.415-5.1,23.068,23.068,0,0,0,2.71.159,22.791,22.791,0,0,0,14.11-4.864,11.372,11.372,0,0,1-10.614-7.89,11.33,11.33,0,0,0,2.138.2,11.4,11.4,0,0,0,2.993-.4,11.368,11.368,0,0,1-9.114-11.14c0-.048,0-0.1,0-0.143a11.314,11.314,0,0,0,5.146,1.421,11.354,11.354,0,0,1-5.054-9.456,11.309,11.309,0,0,1,1.538-5.712,32.258,32.258,0,0,0,23.417,11.871,11.394,11.394,0,0,1-.295-2.59A11.362,11.362,0,0,1-69.349-152.5a11.346,11.346,0,0,1,8.293,3.587,22.737,22.737,0,0,0,7.214-2.757,11.391,11.391,0,0,1-5,6.286,22.746,22.746,0,0,0,6.525-1.789A23.085,23.085,0,0,1-57.981-141.293Zm61.3,7.223v-0.117c-0.024.039-.057,0.078-0.078,0.117H3.323ZM-40-170v80H40v-80H-40Zm24.883,66.462H-26.986v-35.709h11.869v35.709Zm-5.935-40.583H-21.13c-3.982,0-6.562-2.743-6.562-6.172,0-3.5,2.656-6.169,6.718-6.169s6.56,2.665,6.638,6.169C-14.336-146.864-16.911-144.121-21.052-144.121Zm48.744,40.583H15.82v-19.105c0-4.8-1.715-8.073-6.012-8.073a6.492,6.492,0,0,0-6.091,4.341,8.135,8.135,0,0,0-.394,2.894v19.943H-8.552s0.159-32.359,0-35.709H3.323v5.06a11.789,11.789,0,0,1,10.7-5.9c7.813,0,13.669,5.1,13.669,16.069v20.478Zm63.594-16.881a30.764,30.764,0,0,0-16.1-4.179,46.171,46.171,0,0,0-10.366,1.226,1.765,1.765,0,0,0-1.5,1.9,1.725,1.725,0,0,0,1.751,1.74A8.563,8.563,0,0,0,66.427-120a43.349,43.349,0,0,1,8.736-.959,27.775,27.775,0,0,1,14.328,3.7,2.09,2.09,0,0,0,1.171.409,1.724,1.724,0,0,0,1.721-1.732A1.836,1.836,0,0,0,91.287-120.419Zm3.288-8.113a38.957,38.957,0,0,0-19.774-5.1,38.264,38.264,0,0,0-10.919,1.515,2.2,2.2,0,0,0-1.721,2.312,2.169,2.169,0,0,0,2.163,2.171,4.583,4.583,0,0,0,1.347-.311,35.13,35.13,0,0,1,9.039-1.156,35.132,35.132,0,0,1,17.583,4.447,2.539,2.539,0,0,0,1.388.482,2.154,2.154,0,0,0,2.158-2.167A2.266,2.266,0,0,0,94.575-128.532ZM40.006-170v80h80v-80h-80Zm40,67.691A27.692,27.692,0,0,1,52.313-130,27.69,27.69,0,0,1,80-157.691,27.692,27.692,0,0,1,107.7-130,27.694,27.694,0,0,1,80-102.309Zm18.3-35.5c-6.249-3.67-14.806-5.341-22.935-5.341a46.6,46.6,0,0,0-13.146,1.7,2.623,2.623,0,0,0-1.935,2.644,2.6,2.6,0,0,0,2.609,2.648,5.922,5.922,0,0,0,1.422-.3,42.733,42.733,0,0,1,11.062-1.33c7.522,0,15.3,1.654,20.313,4.659a2.623,2.623,0,0,0,1.424.426,2.584,2.584,0,0,0,2.615-2.592A2.632,2.632,0,0,0,98.3-137.81ZM120-170h80v80H120v-80Zm31.464,43.458v0h1.7Zm16.968,0v0h1.7Zm18.9-5.089a6.8,6.8,0,0,0-6.787-6.79,6.7,6.7,0,0,0-4.079,1.375,28.516,28.516,0,0,0-14.025-4.6l2.847-6.682,8.284,1.936a5.078,5.078,0,0,0,5.039,4.572,5.1,5.1,0,0,0,5.09-5.092,5.1,5.1,0,0,0-5.09-5.092,5.08,5.08,0,0,0-4.252,2.308l-9.682-2.264a1.7,1.7,0,0,0-1.951.988l-3.936,9.234a29.094,29.094,0,0,0-15.227,4.6,6.648,6.648,0,0,0-3.977-1.287,6.8,6.8,0,0,0-6.787,6.79,6.725,6.725,0,0,0,3.431,5.877c-0.027.3-.038,0.6-0.038,0.913,0,9.36,10.656,16.974,23.755,16.974s23.754-7.614,23.754-16.974c0-.265-0.01-0.526-0.027-0.788A6.723,6.723,0,0,0,187.333-131.631ZM178.612-148.6a1.7,1.7,0,0,1,1.7,1.7,1.7,1.7,0,0,1-1.7,1.7,1.7,1.7,0,0,1-1.7-1.7A1.7,1.7,0,0,1,178.612-148.6Zm-30.541,22.066a3.4,3.4,0,0,1,3.393-3.394,3.4,3.4,0,0,1,3.394,3.394,3.4,3.4,0,0,1-3.394,3.395A3.4,3.4,0,0,1,148.071-126.539Zm19.712,11.261a13.353,13.353,0,0,1-7.835,2.543,13.358,13.358,0,0,1-7.836-2.543,1.7,1.7,0,0,1-.38-2.369,1.7,1.7,0,0,1,2.369-.381,9.948,9.948,0,0,0,11.694,0,1.7,1.7,0,0,1,2.369.381A1.7,1.7,0,0,1,167.783-115.278Zm0.649-7.866a3.4,3.4,0,0,1-3.394-3.395,3.4,3.4,0,0,1,3.394-3.394,3.4,3.4,0,0,1,3.393,3.394A3.4,3.4,0,0,1,168.432-123.144ZM277.917-170H200v80h27.293v-0.018a1.853,1.853,0,0,0,2.05-1.713c0.1-2.778.03-5.562,0.03-8.248a58.273,58.273,0,0,1-5.885.239c-4.227-.241-7.476-2.03-9.16-6.134a11.742,11.742,0,0,0-4.843-5.9,4.865,4.865,0,0,1-1.154-1.029c-0.438-.506-0.356-1.026.335-1.165a5.833,5.833,0,0,1,2.146-.111,9.012,9.012,0,0,1,6,4.415c2.826,4.418,7.175,5.77,12.069,3.73a1.175,1.175,0,0,0,.671-0.641,10.335,10.335,0,0,1,2.617-5.3c-1.651-.3-3.181-0.527-4.682-0.872-4.319-.991-8.2-2.774-11.038-6.316a19.442,19.442,0,0,1-3.861-9.871c-0.763-5.637-.08-10.915,3.824-15.42a1.21,1.21,0,0,0,.217-0.978,15.632,15.632,0,0,1,.14-9.443c0.509-1.645.65-1.727,2.344-1.5,0.1,0.014.2,0.04,0.306,0.057,3.4,0.557,6.316,2.187,9.194,3.936a2.071,2.071,0,0,0,1.4.28,43.423,43.423,0,0,1,20.607.006,2.088,2.088,0,0,0,1.314-.239c1.564-.811,3.062-1.754,4.646-2.523a12.942,12.942,0,0,1,5.876-1.529,1.4,1.4,0,0,1,1.055.674,15.523,15.523,0,0,1,.52,10.111,1.863,1.863,0,0,0,.252,1.253c0.989,1.8,2.37,3.46,3,5.369a22.434,22.434,0,0,1-1.385,17.05c-2.38,5.013-6.794,7.553-12.019,8.863-1.764.442-3.572,0.711-5.475,1.082,2.494,2.584,2.885,5.738,2.841,9.041-0.046,3.407-.034,6.815-0.036,10.223,0,1.651.726,2.563,1.994,2.616C253.2-90,280-90,280-90v-80h-2.083ZM280-170h80v80H280v-80Zm2,2h76v76H282v-76Zm34,34h8v8h-8v-8Z"/>
</svg>
